<svg xmlns="http://www.w3.org/2000/svg" width="21" height="15" viewBox="0 0 21 15"><defs><style>.cls-1{fill:#a6d6fb;fill-rule:evenodd}</style></defs><path id="Forma_1" data-name="Forma 1" class="cls-1" d="M546 23.586a.336.336 0 0 1-.232-.092l-3.9-3.673a.341.341 0 0 1-.015-.48.336.336 0 0 1 .479-.015l3.9 3.673a.341.341 0 0 1 .015.48.336.336 0 0 1-.247.107zm-13.007 0a.338.338 0 0 1-.247-.107.341.341 0 0 1 .015-.48l3.9-3.673a.339.339 0 1 1 .464.5l-3.9 3.673a.334.334 0 0 1-.225.087zM548.307 27h-17.614A1.7 1.7 0 0 1 529 25.3V13.7a1.7 1.7 0 0 1 1.693-1.7h17.614A1.7 1.7 0 0 1 550 13.7v11.6a1.7 1.7 0 0 1-1.693 1.7zm-17.614-14.321a1.02 1.02 0 0 0-1.016 1.021v11.6a1.02 1.02 0 0 0 1.016 1.021h17.614a1.02 1.02 0 0 0 1.016-1.021V13.7a1.02 1.02 0 0 0-1.016-1.021h-17.614zm8.807 8.531a1.887 1.887 0 0 1-1.243-.451l-8.695-7.622a.34.34 0 1 1 .445-.513l8.7 7.621a1.262 1.262 0 0 0 1.6 0l8.684-7.609a.338.338 0 0 1 .478.033.343.343 0 0 1-.033.48l-8.684 7.609a1.886 1.886 0 0 1-1.252.452z" transform="translate(-529 -12)"/></svg>