<svg xmlns="http://www.w3.org/2000/svg" width="17" height="13" viewBox="0 0 17 13"><defs><style>.cls-1{fill:#a1a5b4;fill-rule:evenodd}</style></defs><path class="cls-1" d="M14.925 0H2.079A2.086 2.086 0 0 0 0 2.089v8.822A2.086 2.086 0 0 0 2.079 13h12.842A2.086 2.086 0 0 0 17 10.911V2.092A2.084 2.084 0 0 0 14.925 0zm1.129 10.911a1.134 1.134 0 0 1-1.129 1.135H2.079A1.133 1.133 0 0 1 .95 10.911V2.092A1.133 1.133 0 0 1 2.079.958h12.842a1.133 1.133 0 0 1 1.129 1.134v8.819zM10.721 6.39l4.158-3.746a.481.481 0 0 0 .035-.675.476.476 0 0 0-.672-.036L8.509 7.104l-1.119-1a.023.023 0 0 1-.007-.011.7.7 0 0 0-.077-.067L2.754 1.933a.473.473 0 0 0-.672.039.478.478 0 0 0 .039.675l4.207 3.778-4.189 3.941a.478.478 0 0 0 .327.827.471.471 0 0 0 .323-.127l4.253-4L8.2 8.1a.473.473 0 0 0 .633 0l1.185-1.068 4.228 4.037a.476.476 0 0 0 .672-.018.481.481 0 0 0-.018-.675z"/></svg>