<svg xmlns="http://www.w3.org/2000/svg" width="16" height="14" viewBox="0 0 16 14"><defs><style>.cls-1{fill:#333;fill-rule:evenodd;opacity:.5}</style></defs><path id="home" class="cls-1" d="M15.829 5.529L8.245.078a.422.422 0 0 0-.491 0L.17 5.529a.4.4 0 0 0-.09.57.421.421 0 0 0 .581.088L8 .913l7.338 5.274a.42.42 0 0 0 .581-.087.4.4 0 0 0-.09-.571zm-2.01.751a.412.412 0 0 0-.416.408v6.5h-3.325v-3.55a2.079 2.079 0 0 0-4.157 0v3.546H2.6v-6.5a.416.416 0 0 0-.831 0v6.9A.412.412 0 0 0 2.18 14h4.157a.412.412 0 0 0 .414-.376.287.287 0 0 0 0-.031V9.638a1.248 1.248 0 0 1 2.495 0v3.954a.293.293 0 0 0 0 .031.412.412 0 0 0 .416.377h4.158a.412.412 0 0 0 .416-.408v-6.9a.412.412 0 0 0-.416-.412z"/></svg>