<svg xmlns="http://www.w3.org/2000/svg" width="42" height="41" viewBox="0 0 42 41"><defs><style>.cls-1{fill:#fff;fill-rule:evenodd}</style></defs><path id="Forma_1" data-name="Forma 1" class="cls-1" d="M697.35 631.169a3.128 3.128 0 1 0 3.15 3.128 3.143 3.143 0 0 0-3.15-3.128zm0 4.865a1.738 1.738 0 1 1 1.75-1.737 1.745 1.745 0 0 1-1.75 1.737zm27.65-3.475a.7.7 0 1 1-.7.7.7.7 0 0 1 .7-.7zm-2.8 0a.7.7 0 1 1-.7.7.7.7 0 0 1 .7-.7zm4.2 2.085a.7.7 0 1 1-.7.7.7.7 0 0 1 .7-.7zm-2.8 0a.7.7 0 1 1-.7.7.7.7 0 0 1 .7-.7zm-4.2-2.085a.7.7 0 1 1-.7.7.7.7 0 0 1 .7-.7zm1.4 2.085a.7.7 0 1 1-.7.7.7.7 0 0 1 .7-.7zm-4.2-2.085a.7.7 0 1 1-.7.7.7.7 0 0 1 .7-.7zm1.4 2.085a.7.7 0 1 1-.7.7.7.7 0 0 1 .7-.7zm-4.2-2.085a.7.7 0 1 1-.7.7.7.7 0 0 1 .7-.7zm1.4 2.085a.7.7 0 1 1-.7.7.7.7 0 0 1 .7-.7zm16.8 3.747V630.2a3.217 3.217 0 0 0-3.226-3.2h-35.548a3.217 3.217 0 0 0-3.226 3.2v8.188a3.149 3.149 0 0 1 0 5.015v8.189a3.149 3.149 0 0 1 0 5.015v8.193a3.218 3.218 0 0 0 3.226 3.2h35.548a3.217 3.217 0 0 0 3.226-3.2v-8.189a3.148 3.148 0 0 1 0-5.015v-8.189a3.148 3.148 0 0 1 0-5.016zm-1.4 18.218v8.191a1.821 1.821 0 0 1-1.826 1.812h-35.548a1.82 1.82 0 0 1-1.826-1.812v-8.189a1.821 1.821 0 0 1 1.826-1.812h35.548a1.821 1.821 0 0 1 1.826 1.81zm0-13.2v8.189a1.821 1.821 0 0 1-1.826 1.812h-35.548a1.82 1.82 0 0 1-1.826-1.812v-8.189a1.821 1.821 0 0 1 1.826-1.812h35.548a1.821 1.821 0 0 1 1.826 1.808zm-37.374-3.2a1.821 1.821 0 0 1-1.826-1.812V630.2a1.821 1.821 0 0 1 1.826-1.812h35.548a1.821 1.821 0 0 1 1.826 1.812v8.188a1.821 1.821 0 0 1-1.826 1.813h-35.548zm4.124 10.424a3.127 3.127 0 1 0-3.15-3.127 3.142 3.142 0 0 0 3.15 3.121zm0-4.864a1.737 1.737 0 1 1-1.75 1.737 1.745 1.745 0 0 1 1.75-1.743zm27.65 0a.7.7 0 1 1-.7.695.7.7 0 0 1 .7-.701zm-2.8 0a.7.7 0 1 1-.7.695.7.7 0 0 1 .7-.701zm4.2 2.084a.7.7 0 1 1-.7.7.7.7 0 0 1 .7-.706zm-2.8 0a.7.7 0 1 1-.7.7.7.7 0 0 1 .7-.706zm-4.2-2.084a.7.7 0 1 1-.7.695.7.7 0 0 1 .7-.701zm1.4 2.084a.7.7 0 1 1-.7.7.7.7 0 0 1 .7-.706zm-4.2-2.084a.7.7 0 1 1-.7.695.7.7 0 0 1 .7-.701zm1.4 2.084a.7.7 0 1 1-.7.7.7.7 0 0 1 .7-.706zm-4.2-2.084a.7.7 0 1 1-.7.695.7.7 0 0 1 .7-.701zm1.4 2.084a.7.7 0 1 1-.7.7.7.7 0 0 1 .7-.706zm-17.85 15.984a3.128 3.128 0 1 0-3.15-3.128 3.142 3.142 0 0 0 3.15 3.122zm0-4.865a1.738 1.738 0 1 1-1.75 1.737 1.745 1.745 0 0 1 1.75-1.743zm27.65 0a.7.7 0 1 1-.7.695.7.7 0 0 1 .7-.701zm-2.8 0a.7.7 0 1 1-.7.695.7.7 0 0 1 .7-.701zm4.2 2.085a.7.7 0 1 1-.7.695.7.7 0 0 1 .7-.701zm-2.8 0a.7.7 0 1 1-.7.695.7.7 0 0 1 .7-.701zm-4.2-2.085a.7.7 0 1 1-.7.695.7.7 0 0 1 .7-.701zm1.4 2.085a.7.7 0 1 1-.7.695.7.7 0 0 1 .7-.701zm-4.2-2.085a.7.7 0 1 1-.7.695.7.7 0 0 1 .7-.701zm1.4 2.085a.7.7 0 1 1-.7.695.7.7 0 0 1 .7-.701zm-4.2-2.085a.7.7 0 1 1-.7.695.7.7 0 0 1 .7-.701zm1.4 2.085a.7.7 0 1 1-.7.695.7.7 0 0 1 .7-.701z" transform="translate(-690 -627)"/></svg>