<svg xmlns="http://www.w3.org/2000/svg" width="17" height="13" viewBox="0 0 16 13">
  <metadata><?xpacket begin="﻿" id="W5M0MpCehiHzreSzNTczkc9d"?>
<x:xmpmeta xmlns:x="adobe:ns:meta/" x:xmptk="Adobe XMP Core 5.6-c138 79.159824, 2016/09/14-01:09:01        ">
   <rdf:RDF xmlns:rdf="http://www.w3.org/1999/02/22-rdf-syntax-ns#">
      <rdf:Description rdf:about=""/>
   </rdf:RDF>
</x:xmpmeta>
                                                                                                    
                                                                                                    
                                                                                                    
                                                                                                    
                                                                                                    
                                                                                                    
                                                                                                    
                                                                                                    
                                                                                                    
                                                                                                    
                                                                                                    
                                                                                                    
                                                                                                    
                                                                                                    
                                                                                                    
                                                                                                    
                                                                                                    
                                                                                                    
                                                                                                    
                                                                                                    
                           
<?xpacket end="w"?></metadata>
<defs>
    <style>
      .cls-1 {
        fill: #a1a5b4;
        fill-rule: evenodd;
      }
    </style>
  </defs>
  <path class="cls-1" d="M705.667,998.95h-3.334V998.3A1.318,1.318,0,0,0,701,997h-4a1.318,1.318,0,0,0-1.333,1.3v0.65h-3.334a1.318,1.318,0,0,0-1.333,1.3v8.45a1.316,1.316,0,0,0,1.333,1.3h13.334a1.316,1.316,0,0,0,1.333-1.3v-8.45A1.318,1.318,0,0,0,705.667,998.95Zm-9.334-.65a0.66,0.66,0,0,1,.667-0.65h4a0.66,0.66,0,0,1,.667.65v0.65h-5.334V998.3Zm10,10.4a0.658,0.658,0,0,1-.666.65H692.333a0.658,0.658,0,0,1-.666-0.65v-4.73a1.361,1.361,0,0,0,.666.18h5.334v0.98a0.331,0.331,0,0,0,.333.32h2a0.331,0.331,0,0,0,.333-0.32v-0.98h5.334a1.358,1.358,0,0,0,.666-0.18v4.73h0Zm-8-3.9v-1.3h1.334v1.3h-1.334Zm8-1.95a0.658,0.658,0,0,1-.666.65h-5.334v-0.32a0.333,0.333,0,0,0-.333-0.33h-2a0.333,0.333,0,0,0-.333.33v0.32h-5.334a0.658,0.658,0,0,1-.666-0.65v-2.6a0.659,0.659,0,0,1,.666-0.65h13.334a0.659,0.659,0,0,1,.666.65v2.6Z" transform="translate(-691 -997)"/>
</svg>
