<svg xmlns="http://www.w3.org/2000/svg" width="17" height="13" viewBox="0 0 16 13"><defs><style>.cls-1{fill:#a1a5b4;fill-rule:evenodd}</style></defs><path class="cls-1" d="M14.667 1.95h-3.334V1.3A1.318 1.318 0 0 0 10 0H6a1.318 1.318 0 0 0-1.333 1.3v.65H1.333A1.318 1.318 0 0 0 0 3.25v8.45A1.316 1.316 0 0 0 1.333 13h13.334A1.316 1.316 0 0 0 16 11.7V3.25a1.318 1.318 0 0 0-1.333-1.3zM5.333 1.3A.66.66 0 0 1 6 .65h4a.66.66 0 0 1 .667.65v.65H5.333V1.3zm10 10.4a.658.658 0 0 1-.666.65H1.333a.658.658 0 0 1-.666-.65V6.97a1.361 1.361 0 0 0 .666.18h5.334v.98A.331.331 0 0 0 7 8.45h2a.331.331 0 0 0 .333-.32v-.98h5.334a1.358 1.358 0 0 0 .666-.18v4.73zm-8-3.9V6.5h1.334v1.3H7.333zm8-1.95a.658.658 0 0 1-.666.65H9.333v-.32A.333.333 0 0 0 9 5.85H7a.333.333 0 0 0-.333.33v.32H1.333a.658.658 0 0 1-.666-.65v-2.6a.659.659 0 0 1 .666-.65h13.334a.659.659 0 0 1 .666.65v2.6z"/></svg>