<svg xmlns="http://www.w3.org/2000/svg" width="17" height="13" viewBox="0 0 13 13">
  <metadata><?xpacket begin="﻿" id="W5M0MpCehiHzreSzNTczkc9d"?>
<x:xmpmeta xmlns:x="adobe:ns:meta/" x:xmptk="Adobe XMP Core 5.6-c138 79.159824, 2016/09/14-01:09:01        ">
   <rdf:RDF xmlns:rdf="http://www.w3.org/1999/02/22-rdf-syntax-ns#">
      <rdf:Description rdf:about=""/>
   </rdf:RDF>
</x:xmpmeta>
                                                                                                    
                                                                                                    
                                                                                                    
                                                                                                    
                                                                                                    
                                                                                                    
                                                                                                    
                                                                                                    
                                                                                                    
                                                                                                    
                                                                                                    
                                                                                                    
                                                                                                    
                                                                                                    
                                                                                                    
                                                                                                    
                                                                                                    
                                                                                                    
                                                                                                    
                                                                                                    
                           
<?xpacket end="w"?></metadata>
<defs>
    <style>
      .cls-1 {
        fill: #a1a5b4;
        fill-rule: evenodd;
      }
    </style>
  </defs>
  <path id="Forma_1" data-name="Forma 1" class="cls-1" d="M817.277,1004.91l-1.233,1.77-0.87-.71a0.213,0.213,0,0,0-.31.03,0.22,0.22,0,0,0,.03.31l1.055,0.86a0.234,0.234,0,0,0,.139.05h0.031a0.225,0.225,0,0,0,.15-0.09l1.37-1.97a0.225,0.225,0,0,0-.056-0.31A0.22,0.22,0,0,0,817.277,1004.91Zm0.181-1.31v-6.5a0.221,0.221,0,0,0-.221-0.221h-1.1V996.22a0.221,0.221,0,0,0-.221-0.22h-1.542a0.22,0.22,0,0,0-.22.22v0.661h-4.848V996.22a0.221,0.221,0,0,0-.22-0.22h-1.543a0.221,0.221,0,0,0-.22.22v0.661h-1.1a0.221,0.221,0,0,0-.22.221v11.238a0.221,0.221,0,0,0,.22.22h8.4a2.822,2.822,0,0,0,1.52.44A2.861,2.861,0,0,0,817.458,1003.6Zm-2.865-7.159h1.1v1.322h-1.1v-1.322Zm-6.83,0h1.1v1.322h-1.1v-1.322Zm-1.322.881h0.881v0.661a0.22,0.22,0,0,0,.22.22h1.543a0.22,0.22,0,0,0,.22-0.22v-0.661h4.848v0.661a0.219,0.219,0,0,0,.22.22h1.542a0.22,0.22,0,0,0,.221-0.22v-0.661h0.881v1.763H806.441v-1.763Zm0,10.8v-8.6h10.576v3.885a0.676,0.676,0,0,1-.131-0.04l-0.123-.03c-0.037-.01-0.075-0.01-0.113-0.02l-0.162-.03a0.277,0.277,0,0,1-.09-0.01c-0.087,0-.174-0.01-0.262-0.01s-0.148.01-.221,0.01v-2.65h-8.373v6.39h5.869a0.327,0.327,0,0,0,.021.05,1.544,1.544,0,0,0,.059.16c0.012,0.03.026,0.06,0.04,0.09,0.025,0.06.051,0.11,0.079,0.17a0.432,0.432,0,0,1,.041.07c0.033,0.05.066,0.11,0.1,0.16,0.014,0.02.029,0.04,0.042,0.06a1.461,1.461,0,0,0,.122.16l0.049,0.06c0.034,0.04.067,0.08,0.1,0.12h-7.628Zm8.442-4.56a0.26,0.26,0,0,1-.072.04,0.713,0.713,0,0,0-.121.07l-0.105.06c-0.034.02-.068,0.05-0.1,0.07s-0.075.05-.111,0.08a0.64,0.64,0,0,1-.088.07c-0.038.04-.075,0.07-0.112,0.11a0.444,0.444,0,0,0-.076.07c-0.04.04-.078,0.08-0.115,0.12l-0.049.06v-1.26h1.542v0.3h-0.01A2.872,2.872,0,0,0,814.883,1003.56Zm-1.486,1.74a0.663,0.663,0,0,0-.02.08,1.748,1.748,0,0,0-.049.19c-0.01.05-.016,0.1-0.024,0.15s-0.014.09-.018,0.13a2.677,2.677,0,0,0-.015.29c0,0.08,0,.16.012,0.24,0,0.01,0,.03,0,0.04,0,0.04.01,0.07,0.015,0.11h0c0,0.01,0,.03.006,0.05h-1.358v-1.55h1.542v0.01s0,0.01,0,.01A2.36,2.36,0,0,0,813.4,1005.3Zm-5.414-.27h1.542v1.55h-1.542v-1.55Zm0-1.98h1.542v1.54h-1.542v-1.54Zm7.492-.44h-1.543v-1.54h1.543v1.54Zm-1.984,0h-1.542v-1.54h1.542v1.54Zm0,1.98h-1.542v-1.54h1.542v1.54Zm-3.525-1.54h1.542v1.54h-1.542v-1.54Zm1.542-.44h-1.542v-1.54h1.542v1.54Zm-1.983,0h-1.542v-1.54h1.542v1.54Zm0.441,2.42h1.542v1.55h-1.542v-1.55Zm6.17,3.53a2.4,2.4,0,0,1-1.346-.41,1.953,1.953,0,0,1-.214-0.16,0.417,0.417,0,0,1-.069-0.07,1.011,1.011,0,0,1-.126-0.12,0.484,0.484,0,0,1-.075-0.08,1.072,1.072,0,0,1-.1-0.13c-0.021-.03-0.043-0.05-0.063-0.08-0.049-.07-0.1-0.15-0.136-0.22l-0.026-.06a1.516,1.516,0,0,1-.088-0.19,0.859,0.859,0,0,0-.033-0.08c-0.02-.06-0.039-0.12-0.056-0.18,0-.01-0.007-0.03-0.01-0.04a2.47,2.47,0,0,1-.056-0.29c0-.01,0-0.01,0-0.02a2.487,2.487,0,0,1-.019-0.29,2.2,2.2,0,0,1,.013-0.25,0.049,0.049,0,0,1,0-.02c0.008-.08.019-0.15,0.034-0.23a0.045,0.045,0,0,0,.006-0.02c0.016-.07.035-0.14,0.057-0.22a0.03,0.03,0,0,0,.009-0.02,2.836,2.836,0,0,1,.167-0.39l0.021-.04c0.009-.01.019-0.03,0.029-0.04a1.77,1.77,0,0,1,.122-0.19c0.011-.02.023-0.03,0.034-0.05,0.039-.05.081-0.1,0.125-0.15a0.254,0.254,0,0,0,.046-0.05c0.043-.04.089-0.09,0.135-0.13,0.017-.01.033-0.03,0.05-0.04a1.568,1.568,0,0,1,.169-0.14,0.049,0.049,0,0,0,.028-0.02,2.384,2.384,0,0,1,.972-0.39h0a2.619,2.619,0,0,1,.4-0.04,2.189,2.189,0,0,1,.255.02h0.039a1.579,1.579,0,0,1,.216.04h0.026a1.882,1.882,0,0,1,.225.07h0.015l0.225,0.09A2.423,2.423,0,0,1,816.136,1008.56Z" transform="translate(-806 -996)"/>
</svg>
