<svg xmlns="http://www.w3.org/2000/svg" width="17" height="13" viewBox="0 0 13 13"><defs><style>.cls-1{fill:#a1a5b4;fill-rule:evenodd}</style></defs><path id="Forma_1" data-name="Forma 1" class="cls-1" d="M817.277 1004.91l-1.233 1.77-.87-.71a.213.213 0 0 0-.31.03.22.22 0 0 0 .03.31l1.055.86a.234.234 0 0 0 .139.05h.031a.225.225 0 0 0 .15-.09l1.37-1.97a.225.225 0 0 0-.056-.31.22.22 0 0 0-.306.06zm.181-1.31v-6.5a.221.221 0 0 0-.221-.221h-1.1v-.659a.221.221 0 0 0-.221-.22h-1.542a.22.22 0 0 0-.22.22v.661h-4.848v-.661a.221.221 0 0 0-.22-.22h-1.543a.221.221 0 0 0-.22.22v.661h-1.1a.221.221 0 0 0-.22.221v11.238a.221.221 0 0 0 .22.22h8.4a2.822 2.822 0 0 0 1.52.44 2.861 2.861 0 0 0 1.315-5.4zm-2.865-7.159h1.1v1.322h-1.1v-1.322zm-6.83 0h1.1v1.322h-1.1v-1.322zm-1.322.881h.881v.661a.22.22 0 0 0 .22.22h1.543a.22.22 0 0 0 .22-.22v-.661h4.848v.661a.219.219 0 0 0 .22.22h1.542a.22.22 0 0 0 .221-.22v-.661h.881v1.763h-10.576v-1.763zm0 10.8v-8.6h10.576v3.885a.676.676 0 0 1-.131-.04l-.123-.03c-.037-.01-.075-.01-.113-.02l-.162-.03a.277.277 0 0 1-.09-.01c-.087 0-.174-.01-.262-.01s-.148.01-.221.01v-2.65h-8.373v6.39h5.869a.327.327 0 0 0 .021.05 1.544 1.544 0 0 0 .059.16c.012.03.026.06.04.09.025.06.051.11.079.17a.432.432 0 0 1 .041.07c.033.05.066.11.1.16l.042.06a1.461 1.461 0 0 0 .122.16l.049.06.1.12h-7.628zm8.442-4.56a.26.26 0 0 1-.072.04.713.713 0 0 0-.121.07l-.105.06c-.034.02-.068.05-.1.07s-.075.05-.111.08a.64.64 0 0 1-.088.07c-.038.04-.075.07-.112.11a.444.444 0 0 0-.076.07c-.04.04-.078.08-.115.12l-.049.06v-1.26h1.542v.3h-.01a2.872 2.872 0 0 0-.583.208zm-1.486 1.74a.663.663 0 0 0-.02.08 1.748 1.748 0 0 0-.049.19c-.01.05-.016.1-.024.15s-.014.09-.018.13a2.677 2.677 0 0 0-.015.29c0 .08 0 .16.012.24v.04c0 .04.01.07.015.11 0 .01 0 .03.006.05h-1.358v-1.55h1.542v.02a2.36 2.36 0 0 0-.088.248zm-5.414-.27h1.542v1.55h-1.542v-1.55zm0-1.98h1.542v1.54h-1.542v-1.54zm7.492-.44h-1.543v-1.54h1.543v1.54zm-1.984 0h-1.542v-1.54h1.542v1.54zm0 1.98h-1.542v-1.54h1.542v1.54zm-3.525-1.54h1.542v1.54h-1.542v-1.54zm1.542-.44h-1.542v-1.54h1.542v1.54zm-1.983 0h-1.542v-1.54h1.542v1.54zm.441 2.42h1.542v1.55h-1.542v-1.55zm6.17 3.53a2.4 2.4 0 0 1-1.346-.41 1.953 1.953 0 0 1-.214-.16.417.417 0 0 1-.069-.07 1.011 1.011 0 0 1-.126-.12.484.484 0 0 1-.075-.08 1.072 1.072 0 0 1-.1-.13c-.021-.03-.043-.05-.063-.08-.049-.07-.1-.15-.136-.22l-.026-.06a1.516 1.516 0 0 1-.088-.19.859.859 0 0 0-.033-.08c-.02-.06-.039-.12-.056-.18 0-.01-.007-.03-.01-.04a2.47 2.47 0 0 1-.056-.29v-.02a2.487 2.487 0 0 1-.019-.29 2.2 2.2 0 0 1 .013-.25.049.049 0 0 1 0-.02c.008-.08.019-.15.034-.23a.045.045 0 0 0 .006-.02c.016-.07.035-.14.057-.22a.03.03 0 0 0 .009-.02 2.836 2.836 0 0 1 .167-.39l.021-.04c.009-.01.019-.03.029-.04a1.77 1.77 0 0 1 .122-.19c.011-.02.023-.03.034-.05.039-.05.081-.1.125-.15a.254.254 0 0 0 .046-.05c.043-.04.089-.09.135-.13.017-.01.033-.03.05-.04a1.568 1.568 0 0 1 .169-.14.049.049 0 0 0 .028-.02 2.384 2.384 0 0 1 .972-.39 2.619 2.619 0 0 1 .4-.04 2.189 2.189 0 0 1 .255.02h.039a1.579 1.579 0 0 1 .216.04h.026a1.882 1.882 0 0 1 .225.07h.015l.225.09a2.423 2.423 0 0 1-1.001 4.628z" transform="translate(-806 -996)"/></svg>