<svg xmlns="http://www.w3.org/2000/svg" width="17" height="13" viewBox="0 0 17 13">
  <metadata><?xpacket begin="﻿" id="W5M0MpCehiHzreSzNTczkc9d"?>
<x:xmpmeta xmlns:x="adobe:ns:meta/" x:xmptk="Adobe XMP Core 5.6-c138 79.159824, 2016/09/14-01:09:01        ">
   <rdf:RDF xmlns:rdf="http://www.w3.org/1999/02/22-rdf-syntax-ns#">
      <rdf:Description rdf:about=""/>
   </rdf:RDF>
</x:xmpmeta>
                                                                                                    
                                                                                                    
                                                                                                    
                                                                                                    
                                                                                                    
                                                                                                    
                                                                                                    
                                                                                                    
                                                                                                    
                                                                                                    
                                                                                                    
                                                                                                    
                                                                                                    
                                                                                                    
                                                                                                    
                                                                                                    
                                                                                                    
                                                                                                    
                                                                                                    
                                                                                                    
                           
<?xpacket end="w"?></metadata>
<defs>
    <style>
      .cls-1 {
        fill: #a1a5b4;
        fill-rule: evenodd;
      }
    </style>
  </defs>
  <path class="cls-1" d="M933.925,963H921.079A2.086,2.086,0,0,0,919,965.089v8.822A2.086,2.086,0,0,0,921.079,976h12.842A2.086,2.086,0,0,0,936,973.911v-8.819A2.084,2.084,0,0,0,933.925,963Zm1.129,10.911a1.134,1.134,0,0,1-1.129,1.135H921.079a1.133,1.133,0,0,1-1.129-1.135v-8.819a1.133,1.133,0,0,1,1.129-1.134h12.842a1.133,1.133,0,0,1,1.129,1.134v8.819h0Zm-5.333-4.521,4.158-3.746a0.481,0.481,0,0,0,.035-0.675,0.476,0.476,0,0,0-.672-0.036l-5.733,5.171-1.119-1a0.023,0.023,0,0,1-.007-0.011,0.7,0.7,0,0,0-.077-0.067l-4.552-4.093a0.473,0.473,0,0,0-.672.039,0.478,0.478,0,0,0,.039.675l4.207,3.778-4.189,3.941a0.478,0.478,0,0,0,.327.827,0.471,0.471,0,0,0,.323-0.127l4.253-4L927.2,971.1a0.473,0.473,0,0,0,.633,0l1.185-1.068,4.228,4.037a0.476,0.476,0,0,0,.672-0.018,0.481,0.481,0,0,0-.018-0.675Z" transform="translate(-919 -963)"/>
</svg>
