<svg xmlns="http://www.w3.org/2000/svg" width="21" height="15" viewBox="0 0 21 15">
  <metadata><?xpacket begin="﻿" id="W5M0MpCehiHzreSzNTczkc9d"?>
<x:xmpmeta xmlns:x="adobe:ns:meta/" x:xmptk="Adobe XMP Core 5.6-c138 79.159824, 2016/09/14-01:09:01        ">
   <rdf:RDF xmlns:rdf="http://www.w3.org/1999/02/22-rdf-syntax-ns#">
      <rdf:Description rdf:about=""/>
   </rdf:RDF>
</x:xmpmeta>
                                                                                                    
                                                                                                    
                                                                                                    
                                                                                                    
                                                                                                    
                                                                                                    
                                                                                                    
                                                                                                    
                                                                                                    
                                                                                                    
                                                                                                    
                                                                                                    
                                                                                                    
                                                                                                    
                                                                                                    
                                                                                                    
                                                                                                    
                                                                                                    
                                                                                                    
                                                                                                    
                           
<?xpacket end="w"?></metadata>
<defs>
    <style>
      .cls-1 {
        fill: #a6d6fb;
        fill-rule: evenodd;
      }
    </style>
  </defs>
  <path id="Forma_1" data-name="Forma 1" class="cls-1" d="M546,23.586a0.336,0.336,0,0,1-.232-0.092l-3.9-3.673a0.341,0.341,0,0,1-.015-0.48,0.336,0.336,0,0,1,.479-0.015l3.9,3.673a0.341,0.341,0,0,1,.015.48A0.336,0.336,0,0,1,546,23.586Zm-13.007,0a0.338,0.338,0,0,1-.247-0.107,0.341,0.341,0,0,1,.015-0.48l3.9-3.673a0.339,0.339,0,1,1,.464.5l-3.9,3.673A0.334,0.334,0,0,1,533,23.586ZM548.307,27H530.693A1.7,1.7,0,0,1,529,25.3V13.7a1.7,1.7,0,0,1,1.693-1.7h17.614A1.7,1.7,0,0,1,550,13.7V25.3A1.7,1.7,0,0,1,548.307,27ZM530.693,12.679a1.02,1.02,0,0,0-1.016,1.021V25.3a1.02,1.02,0,0,0,1.016,1.021h17.614a1.02,1.02,0,0,0,1.016-1.021V13.7a1.02,1.02,0,0,0-1.016-1.021H530.693ZM539.5,21.21a1.887,1.887,0,0,1-1.243-.451l-8.695-7.622a0.34,0.34,0,1,1,.445-0.513l8.7,7.621a1.262,1.262,0,0,0,1.6,0l8.684-7.609a0.338,0.338,0,0,1,.478.033,0.343,0.343,0,0,1-.033.48l-8.684,7.609A1.886,1.886,0,0,1,539.5,21.21Z" transform="translate(-529 -12)"/>
</svg>
