<svg xmlns="http://www.w3.org/2000/svg" width="16" height="14" viewBox="0 0 16 14">
  <metadata><?xpacket begin="﻿" id="W5M0MpCehiHzreSzNTczkc9d"?>
<x:xmpmeta xmlns:x="adobe:ns:meta/" x:xmptk="Adobe XMP Core 5.6-c138 79.159824, 2016/09/14-01:09:01        ">
   <rdf:RDF xmlns:rdf="http://www.w3.org/1999/02/22-rdf-syntax-ns#">
      <rdf:Description rdf:about=""/>
   </rdf:RDF>
</x:xmpmeta>
                                                                                                    
                                                                                                    
                                                                                                    
                                                                                                    
                                                                                                    
                                                                                                    
                                                                                                    
                                                                                                    
                                                                                                    
                                                                                                    
                                                                                                    
                                                                                                    
                                                                                                    
                                                                                                    
                                                                                                    
                                                                                                    
                                                                                                    
                                                                                                    
                                                                                                    
                                                                                                    
                           
<?xpacket end="w"?></metadata>
<defs>
    <style>
      .cls-1 {
        fill: #333;
        fill-rule: evenodd;
        opacity: 0.5;
      }
    </style>
  </defs>
  <path id="home" class="cls-1" d="M15.829,5.529L8.245,0.078a0.422,0.422,0,0,0-.491,0L0.17,5.529a0.4,0.4,0,0,0-.09.57,0.421,0.421,0,0,0,.581.088L8,0.913l7.338,5.274A0.42,0.42,0,0,0,15.919,6.1,0.4,0.4,0,0,0,15.829,5.529Zm-2.01.751a0.412,0.412,0,0,0-.416.408v6.5H10.078V9.638a2.079,2.079,0,0,0-4.157,0v3.546H2.6v-6.5a0.416,0.416,0,0,0-.831,0v6.9A0.412,0.412,0,0,0,2.18,14H6.337a0.412,0.412,0,0,0,.414-0.376,0.287,0.287,0,0,0,0-.031V9.638a1.248,1.248,0,0,1,2.495,0v3.954a0.293,0.293,0,0,0,0,.031A0.412,0.412,0,0,0,9.662,14H13.82a0.412,0.412,0,0,0,.416-0.408v-6.9A0.412,0.412,0,0,0,13.82,6.28Z"/>
</svg>
