<svg xmlns="http://www.w3.org/2000/svg" width="17" height="13" viewBox="0 0 9 13"><defs><style>.cls-1{fill:#a1a5b4;fill-rule:evenodd}</style></defs><path id="Forma_1" data-name="Forma 1" class="cls-1" d="M924.5 999.047a1.522 1.522 0 1 0 1.5 1.523 1.513 1.513 0 0 0-1.5-1.523zm0-3.047a4.541 4.541 0 0 0-4.5 4.57 4.608 4.608 0 0 0 .671 2.4l3.573 5.85a.371.371 0 0 0 .641-.01l3.481-5.9a4.6 4.6 0 0 0 .634-2.34 4.54 4.54 0 0 0-4.5-4.57zm0 6.86a2.29 2.29 0 1 1 2.255-2.29 2.273 2.273 0 0 1-2.255 2.29z" transform="translate(-920 -996)"/></svg>