<svg xmlns="http://www.w3.org/2000/svg" width="29" height="17" viewBox="0 0 29 17">
  <metadata><?xpacket begin="﻿" id="W5M0MpCehiHzreSzNTczkc9d"?>
<x:xmpmeta xmlns:x="adobe:ns:meta/" x:xmptk="Adobe XMP Core 5.6-c138 79.159824, 2016/09/14-01:09:01        ">
   <rdf:RDF xmlns:rdf="http://www.w3.org/1999/02/22-rdf-syntax-ns#">
      <rdf:Description rdf:about=""/>
   </rdf:RDF>
</x:xmpmeta>
                                                                                                    
                                                                                                    
                                                                                                    
                                                                                                    
                                                                                                    
                                                                                                    
                                                                                                    
                                                                                                    
                                                                                                    
                                                                                                    
                                                                                                    
                                                                                                    
                                                                                                    
                                                                                                    
                                                                                                    
                                                                                                    
                                                                                                    
                                                                                                    
                                                                                                    
                                                                                                    
                           
<?xpacket end="w"?></metadata>
<defs>
    <style>
      .cls-1 {
        fill: #a6d6fb;
        fill-rule: evenodd;
      }
    </style>
  </defs>
  <path id="Forma_1" data-name="Forma 1" class="cls-1" d="M1532.44,25.149a0.634,0.634,0,0,1-.3-0.079,0.594,0.594,0,0,1-.29-0.513V21.875h-10.92a0.6,0.6,0,0,1-.6-0.593v-3.8a0.6,0.6,0,0,1,.6-0.593h10.92V14.213a0.594,0.594,0,0,1,.29-0.513,0.606,0.606,0,0,1,.6,0l8.96,5.171a0.589,0.589,0,0,1,0,1.027l-8.96,5.171A0.607,0.607,0,0,1,1532.44,25.149Zm-10.92-4.459h10.92a0.589,0.589,0,0,1,.59.593v2.247l7.19-4.144-7.19-4.144v2.247a0.589,0.589,0,0,1-.59.593h-10.92v2.609ZM1529,28h-14.99a1.01,1.01,0,0,1-1.01-1.012V12.013A1.01,1.01,0,0,1,1514.01,11H1529a1.019,1.019,0,0,1,1.02,1.012v3.56a0.6,0.6,0,0,1-.6.593,0.589,0.589,0,0,1-.59-0.593V12.186h-14.64V26.814h14.64V23.2a0.589,0.589,0,0,1,.59-0.593,0.6,0.6,0,0,1,.6.593v3.791A1.019,1.019,0,0,1,1529,28Z" transform="translate(-1513 -11)"/>
</svg>
