<svg xmlns="http://www.w3.org/2000/svg" width="29" height="17" viewBox="0 0 29 17"><defs><style>.cls-1{fill:#a6d6fb;fill-rule:evenodd}</style></defs><path id="Forma_1" data-name="Forma 1" class="cls-1" d="M1532.44 25.149a.634.634 0 0 1-.3-.079.594.594 0 0 1-.29-.513v-2.682h-10.92a.6.6 0 0 1-.6-.593v-3.8a.6.6 0 0 1 .6-.593h10.92v-2.676a.594.594 0 0 1 .29-.513.606.606 0 0 1 .6 0l8.96 5.171a.589.589 0 0 1 0 1.027l-8.96 5.171a.607.607 0 0 1-.3.08zm-10.92-4.459h10.92a.589.589 0 0 1 .59.593v2.247l7.19-4.144-7.19-4.144v2.247a.589.589 0 0 1-.59.593h-10.92v2.609zM1529 28h-14.99a1.01 1.01 0 0 1-1.01-1.012V12.013a1.01 1.01 0 0 1 1.01-1.013H1529a1.019 1.019 0 0 1 1.02 1.012v3.56a.6.6 0 0 1-.6.593.589.589 0 0 1-.59-.593v-3.386h-14.64v14.628h14.64V23.2a.589.589 0 0 1 .59-.593.6.6 0 0 1 .6.593v3.791A1.019 1.019 0 0 1 1529 28z" transform="translate(-1513 -11)"/></svg>