<svg xmlns="http://www.w3.org/2000/svg" width="41.03" height="41" viewBox="0 0 41.03 41"><defs><style>.cls-1{fill:#fff;fill-rule:evenodd}</style></defs><path class="cls-1" d="M39.91 14.07L26.93 1.087a3.725 3.725 0 0 0-5.26 0L1.09 21.666a3.723 3.723 0 0 0 0 5.264l1.6 1.6 10.76 10.76h-1.49a.854.854 0 1 0 0 1.708h17.08a.854.854 0 0 0 0-1.708h-9.09l19.96-19.958a3.729 3.729 0 0 0 0-5.262zm-1.21 4.056L18.12 38.705a1.976 1.976 0 0 1-1.42.586 1.976 1.976 0 0 1-1.42-.586L4.5 27.927 24.26 8.163a.843.843 0 0 0 0-1.208.858.858 0 0 0-1.21 0L3.29 26.719l-1-1a2.038 2.038 0 0 1 0-2.848L22.87 2.292a2.018 2.018 0 0 1 1.43-.587 1.994 1.994 0 0 1 1.42.587l4.62 4.621-19.76 19.764a.861.861 0 0 0 0 1.208.844.844 0 0 0 .6.25.872.872 0 0 0 .61-.25L31.55 8.121l7.15 7.154a2.007 2.007 0 0 1 0 2.851zm-17.66 6.543a.846.846 0 0 0-1.2 0l-6.72 6.722a.843.843 0 0 0 0 1.208.845.845 0 0 0 1.2 0l6.72-6.722a.843.843 0 0 0 0-1.208zm-2.75 6.381l-2.76 2.757a.855.855 0 0 0 1.21 1.208l2.76-2.757a.855.855 0 0 0-1.21-1.208zm2.53-2.537l-.36.363a.855.855 0 0 0 1.21 1.208l.36-.362a.844.844 0 0 0 0-1.209.858.858 0 0 0-1.21 0zm11.78-15.4a.857.857 0 0 0-1.21 0l-3.62 3.624a.855.855 0 0 0 0 1.208l2.41 2.416a.857.857 0 0 0 1.21 0l3.62-3.624a.843.843 0 0 0 0-1.208zm-1.81 5.436l-1.21-1.208 2.41-2.416 1.21 1.208zM25.65 6.418a.868.868 0 0 0 .61-.251l.36-.362a.855.855 0 0 0-1.21-1.208l-.36.363a.842.842 0 0 0 0 1.207.829.829 0 0 0 .6.254zM8.59 28.67l-.37.362a.854.854 0 0 0 .61 1.458.844.844 0 0 0 .6-.25l.36-.362a.851.851 0 1 0-1.2-1.205z"/></svg>