<svg xmlns="http://www.w3.org/2000/svg" width="41.03" height="41" viewBox="0 0 41.03 41">
  <metadata><?xpacket begin="﻿" id="W5M0MpCehiHzreSzNTczkc9d"?>
<x:xmpmeta xmlns:x="adobe:ns:meta/" x:xmptk="Adobe XMP Core 5.6-c138 79.159824, 2016/09/14-01:09:01        ">
   <rdf:RDF xmlns:rdf="http://www.w3.org/1999/02/22-rdf-syntax-ns#">
      <rdf:Description rdf:about=""/>
   </rdf:RDF>
</x:xmpmeta>
                                                                                                    
                                                                                                    
                                                                                                    
                                                                                                    
                                                                                                    
                                                                                                    
                                                                                                    
                                                                                                    
                                                                                                    
                                                                                                    
                                                                                                    
                                                                                                    
                                                                                                    
                                                                                                    
                                                                                                    
                                                                                                    
                                                                                                    
                                                                                                    
                                                                                                    
                                                                                                    
                           
<?xpacket end="w"?></metadata>
<defs>
    <style>
      .cls-1 {
        fill: #fff;
        fill-rule: evenodd;
      }
    </style>
  </defs>
  <path class="cls-1" d="M1315.91,642.07l-12.98-12.983a3.725,3.725,0,0,0-5.26,0l-20.58,20.579a3.723,3.723,0,0,0,0,5.264l1.6,1.6h0l10.76,10.76h-1.49a0.854,0.854,0,1,0,0,1.708h17.08a0.854,0.854,0,0,0,0-1.708h-9.09l19.96-19.958A3.729,3.729,0,0,0,1315.91,642.07Zm-1.21,4.056-20.58,20.579a1.976,1.976,0,0,1-1.42.586h0a1.976,1.976,0,0,1-1.42-.586l-10.78-10.778,19.76-19.764a0.843,0.843,0,0,0,0-1.208,0.858,0.858,0,0,0-1.21,0l-19.76,19.764-1-1a2.038,2.038,0,0,1,0-2.848l20.58-20.579a2.018,2.018,0,0,1,1.43-.587,1.994,1.994,0,0,1,1.42.587l4.62,4.621-19.76,19.764a0.861,0.861,0,0,0,0,1.208,0.844,0.844,0,0,0,.6.25,0.872,0.872,0,0,0,.61-0.25l19.76-19.764,7.15,7.154A2.007,2.007,0,0,1,1314.7,646.126Zm-17.66,6.543a0.846,0.846,0,0,0-1.2,0l-6.72,6.722a0.843,0.843,0,0,0,0,1.208,0.845,0.845,0,0,0,1.2,0l6.72-6.722A0.843,0.843,0,0,0,1297.04,652.669Zm-2.75,6.381-2.76,2.757a0.855,0.855,0,0,0,1.21,1.208l2.76-2.757A0.855,0.855,0,0,0,1294.29,659.05Zm2.53-2.537-0.36.363a0.855,0.855,0,0,0,1.21,1.208l0.36-.362a0.844,0.844,0,0,0,0-1.209A0.858,0.858,0,0,0,1296.82,656.513Zm11.78-15.4a0.857,0.857,0,0,0-1.21,0l-3.62,3.624a0.855,0.855,0,0,0,0,1.208l2.41,2.416a0.857,0.857,0,0,0,1.21,0l3.62-3.624a0.843,0.843,0,0,0,0-1.208Zm-1.81,5.436-1.21-1.208,2.41-2.416,1.21,1.208Zm-5.14-12.131a0.868,0.868,0,0,0,.61-0.251l0.36-.362a0.855,0.855,0,0,0-1.21-1.208l-0.36.363a0.842,0.842,0,0,0,0,1.207A0.829,0.829,0,0,0,1301.65,634.421Zm-17.06,22.252-0.37.362a0.854,0.854,0,0,0,.61,1.458,0.844,0.844,0,0,0,.6-0.25l0.36-.362A0.851,0.851,0,1,0,1284.59,656.673Z" transform="translate(-1276 -628)"/>
</svg>
