<svg xmlns="http://www.w3.org/2000/svg" width="17" height="13" viewBox="0 0 13 13"><defs><style>.cls-1{fill:#a1a5b4;fill-rule:evenodd}</style></defs><path class="cls-1" d="M10.279 8.053a1.28 1.28 0 0 0-.928-.425 1.324 1.324 0 0 0-.94.422l-.868.865c-.072-.039-.143-.075-.212-.11-.1-.05-.192-.1-.272-.146A9.433 9.433 0 0 1 4.8 6.6a5.536 5.536 0 0 1-.742-1.169c.225-.206.434-.42.637-.626l.231-.233a1.258 1.258 0 0 0 0-1.9l-.75-.749c-.085-.085-.173-.173-.256-.26-.164-.17-.338-.346-.516-.511a1.3 1.3 0 0 0-.921-.4 1.349 1.349 0 0 0-.934.4v.006l-.935.941a2.009 2.009 0 0 0-.6 1.276 4.8 4.8 0 0 0 .352 2.036 11.809 11.809 0 0 0 2.1 3.5 12.908 12.908 0 0 0 4.306 3.366 6.7 6.7 0 0 0 2.418.713c.057 0 .118.006.173.006a2.075 2.075 0 0 0 1.585-.68.171.171 0 0 1 .011-.014 6.372 6.372 0 0 1 .481-.5c.118-.112.239-.23.357-.354a1.367 1.367 0 0 0 .415-.949 1.315 1.315 0 0 0-.423-.941zm.984 2.889c-.107.115-.217.22-.335.335a6.934 6.934 0 0 0-.53.549 1.328 1.328 0 0 1-1.034.436h-.126a5.957 5.957 0 0 1-2.143-.642 12.208 12.208 0 0 1-4.056-3.172 11.13 11.13 0 0 1-1.978-3.289 3.911 3.911 0 0 1-.308-1.718 1.257 1.257 0 0 1 .379-.815l.937-.935a.623.623 0 0 1 .418-.195.587.587 0 0 1 .4.192l.008.008c.168.157.327.318.5.491l.261.266.75.749a.524.524 0 0 1 0 .851c-.08.08-.157.159-.236.236-.231.236-.451.455-.69.669a.092.092 0 0 0-.014.014.561.561 0 0 0-.143.623l.009.025a6 6 0 0 0 .887 1.446 10.072 10.072 0 0 0 2.44 2.217 3.659 3.659 0 0 0 .338.184c.1.05.192.1.272.146.011 0 .022.013.033.019a.6.6 0 0 0 .272.068.588.588 0 0 0 .418-.189l.939-.938a.621.621 0 0 1 .415-.206.56.56 0 0 1 .4.2v.006l1.514 1.511a.542.542 0 0 1 .003.858zm-4.237-7.85a3.537 3.537 0 0 1 2.88 2.876.368.368 0 0 0 .365.307h.063a.37.37 0 0 0 .305-.428 4.27 4.27 0 0 0-3.484-3.479.372.372 0 0 0-.428.3.365.365 0 0 0 .299.424zm5.968 2.643A7.035 7.035 0 0 0 7.257.006a.369.369 0 0 0-.426.3.373.373 0 0 0 .3.428 6.282 6.282 0 0 1 5.127 5.119.37.37 0 0 0 .366.308.448.448 0 0 0 .063-.006.362.362 0 0 0 .307-.42z"/></svg>