<svg xmlns="http://www.w3.org/2000/svg" width="14.969" height="15" viewBox="0 0 14.969 15"><defs><style>.cls-1{fill:#a6d6fb;fill-rule:evenodd}</style></defs><path class="cls-1" d="M11.834 9.291a1.48 1.48 0 0 0-1.072-.491 1.531 1.531 0 0 0-1.084.488l-1 1-.244-.127c-.114-.057-.222-.111-.314-.168a10.894 10.894 0 0 1-2.609-2.375 6.449 6.449 0 0 1-.856-1.349c.26-.237.5-.485.736-.722.089-.089.177-.181.266-.269a1.451 1.451 0 0 0 0-2.191l-.865-.864-.3-.3c-.19-.2-.39-.4-.6-.589A1.5 1.5 0 0 0 2.83.868a1.551 1.551 0 0 0-1.077.466l-.007.006L.669 2.426a2.31 2.31 0 0 0-.688 1.472 5.534 5.534 0 0 0 .406 2.35 13.621 13.621 0 0 0 2.424 4.04 14.922 14.922 0 0 0 4.967 3.885 7.743 7.743 0 0 0 2.789.823c.067 0 .137.006.2.006a2.39 2.39 0 0 0 1.829-.785.181.181 0 0 1 .013-.016 7.173 7.173 0 0 1 .554-.573c.137-.13.276-.266.412-.408a1.579 1.579 0 0 0 .479-1.1 1.522 1.522 0 0 0-.488-1.086zm1.135 3.334c-.123.133-.25.253-.386.386a8.246 8.246 0 0 0-.612.633 1.528 1.528 0 0 1-1.192.5h-.146a6.88 6.88 0 0 1-2.472-.741 14.077 14.077 0 0 1-4.678-3.66 12.861 12.861 0 0 1-2.283-3.8 4.519 4.519 0 0 1-.354-1.982 1.45 1.45 0 0 1 .437-.941l1.081-1.08a.72.72 0 0 1 .482-.225.677.677 0 0 1 .462.222l.01.01c.193.18.377.367.57.567l.3.307.865.864a.6.6 0 0 1 0 .982c-.092.092-.181.184-.273.272-.266.272-.52.526-.8.773a.06.06 0 0 0-.016.016.645.645 0 0 0-.165.719l.009.028a6.966 6.966 0 0 0 1.024 1.669 11.641 11.641 0 0 0 2.815 2.559 4.332 4.332 0 0 0 .39.212c.114.057.222.111.314.168.012.006.025.016.038.022a.687.687 0 0 0 .314.079.674.674 0 0 0 .481-.218l1.084-1.083a.718.718 0 0 1 .479-.237.648.648 0 0 1 .457.231l.006.006 1.759 1.751a.625.625 0 0 1 0 .991zM8.082 3.566a4.078 4.078 0 0 1 3.322 3.319.424.424 0 0 0 .421.355.547.547 0 0 0 .073-.006.428.428 0 0 0 .352-.494 4.928 4.928 0 0 0-4.019-4.015.431.431 0 0 0-.5.348.423.423 0 0 0 .35.493zm6.887 3.049A8.118 8.118 0 0 0 8.347 0a.427.427 0 1 0-.139.842 7.251 7.251 0 0 1 5.914 5.909.426.426 0 0 0 .422.355.578.578 0 0 0 .073-.006.419.419 0 0 0 .352-.485z"/></svg>