<svg xmlns="http://www.w3.org/2000/svg" width="17" height="13" viewBox="0 0 13 13">
  <metadata><?xpacket begin="﻿" id="W5M0MpCehiHzreSzNTczkc9d"?>
<x:xmpmeta xmlns:x="adobe:ns:meta/" x:xmptk="Adobe XMP Core 5.6-c138 79.159824, 2016/09/14-01:09:01        ">
   <rdf:RDF xmlns:rdf="http://www.w3.org/1999/02/22-rdf-syntax-ns#">
      <rdf:Description rdf:about=""/>
   </rdf:RDF>
</x:xmpmeta>
                                                                                                    
                                                                                                    
                                                                                                    
                                                                                                    
                                                                                                    
                                                                                                    
                                                                                                    
                                                                                                    
                                                                                                    
                                                                                                    
                                                                                                    
                                                                                                    
                                                                                                    
                                                                                                    
                                                                                                    
                                                                                                    
                                                                                                    
                                                                                                    
                                                                                                    
                                                                                                    
                           
<?xpacket end="w"?></metadata>
<defs>
    <style>
      .cls-1 {
        fill: #a1a5b4;
        fill-rule: evenodd;
      }
    </style>
  </defs>
  <path class="cls-1" d="M700.279,764.053a1.28,1.28,0,0,0-.928-0.425,1.324,1.324,0,0,0-.94.422l-0.868.865c-0.072-.039-0.143-0.075-0.212-0.11-0.1-.05-0.192-0.1-0.272-0.146A9.433,9.433,0,0,1,694.8,762.6a5.536,5.536,0,0,1-.742-1.169c0.225-.206.434-0.42,0.637-0.626l0.231-.233a1.258,1.258,0,0,0,0-1.9l-0.75-.749c-0.085-.085-0.173-0.173-0.256-0.26-0.164-.17-0.338-0.346-0.516-0.511a1.3,1.3,0,0,0-.921-0.4,1.349,1.349,0,0,0-.934.4l0,0.006-0.935.941a2.009,2.009,0,0,0-.6,1.276,4.8,4.8,0,0,0,.352,2.036,11.809,11.809,0,0,0,2.1,3.5,12.908,12.908,0,0,0,4.306,3.366,6.7,6.7,0,0,0,2.418.713c0.057,0,.118.006,0.173,0.006a2.075,2.075,0,0,0,1.585-.68,0.171,0.171,0,0,1,.011-0.014,6.372,6.372,0,0,1,.481-0.5c0.118-.112.239-0.23,0.357-0.354a1.367,1.367,0,0,0,.415-0.949,1.315,1.315,0,0,0-.423-0.941Zm0.984,2.889s0,0,0,0c-0.107.115-.217,0.22-0.335,0.335a6.934,6.934,0,0,0-.53.549,1.328,1.328,0,0,1-1.034.436c-0.041,0-.085,0-0.126,0a5.957,5.957,0,0,1-2.143-.642,12.208,12.208,0,0,1-4.056-3.172,11.13,11.13,0,0,1-1.978-3.289,3.911,3.911,0,0,1-.308-1.718,1.257,1.257,0,0,1,.379-0.815l0.937-.935a0.623,0.623,0,0,1,.418-0.195,0.587,0.587,0,0,1,.4.192l0.008,0.008c0.168,0.157.327,0.318,0.5,0.491,0.085,0.088.173,0.176,0.261,0.266l0.75,0.749a0.524,0.524,0,0,1,0,.851c-0.08.08-.157,0.159-0.236,0.236-0.231.236-.451,0.455-0.69,0.669a0.092,0.092,0,0,0-.014.014,0.561,0.561,0,0,0-.143.623l0.009,0.025a6,6,0,0,0,.887,1.446l0,0a10.072,10.072,0,0,0,2.44,2.217,3.659,3.659,0,0,0,.338.184c0.1,0.05.192,0.1,0.272,0.146,0.011,0,.022.013,0.033,0.019a0.6,0.6,0,0,0,.272.068,0.588,0.588,0,0,0,.418-0.189l0.939-.938a0.621,0.621,0,0,1,.415-0.206,0.56,0.56,0,0,1,.4.2l0,0.006,1.514,1.511A0.542,0.542,0,0,1,701.263,766.942Zm-4.237-7.85a3.537,3.537,0,0,1,2.88,2.876,0.368,0.368,0,0,0,.365.307c0.022,0,.041,0,0.063,0a0.37,0.37,0,0,0,.305-0.428,4.27,4.27,0,0,0-3.484-3.479,0.372,0.372,0,0,0-.428.3A0.365,0.365,0,0,0,697.026,759.092Zm5.968,2.643a7.035,7.035,0,0,0-5.737-5.729,0.369,0.369,0,0,0-.426.3,0.373,0.373,0,0,0,.3.428,6.282,6.282,0,0,1,5.127,5.119,0.37,0.37,0,0,0,.366.308,0.448,0.448,0,0,0,.063-0.006A0.362,0.362,0,0,0,702.994,761.735Z" transform="translate(-690 -756)"/>
</svg>
