<svg xmlns="http://www.w3.org/2000/svg" width="14.969" height="15" viewBox="0 0 14.969 15">
  <metadata><?xpacket begin="﻿" id="W5M0MpCehiHzreSzNTczkc9d"?>
<x:xmpmeta xmlns:x="adobe:ns:meta/" x:xmptk="Adobe XMP Core 5.6-c138 79.159824, 2016/09/14-01:09:01        ">
   <rdf:RDF xmlns:rdf="http://www.w3.org/1999/02/22-rdf-syntax-ns#">
      <rdf:Description rdf:about=""/>
   </rdf:RDF>
</x:xmpmeta>
                                                                                                    
                                                                                                    
                                                                                                    
                                                                                                    
                                                                                                    
                                                                                                    
                                                                                                    
                                                                                                    
                                                                                                    
                                                                                                    
                                                                                                    
                                                                                                    
                                                                                                    
                                                                                                    
                                                                                                    
                                                                                                    
                                                                                                    
                                                                                                    
                                                                                                    
                                                                                                    
                           
<?xpacket end="w"?></metadata>
<defs>
    <style>
      .cls-1 {
        fill: #a6d6fb;
        fill-rule: evenodd;
      }
    </style>
  </defs>
  <path class="cls-1" d="M384.865,21.291a1.48,1.48,0,0,0-1.072-.491,1.531,1.531,0,0,0-1.084.488l-1,1c-0.083-.044-0.165-0.085-0.244-0.127-0.114-.057-0.222-0.111-0.314-0.168a10.894,10.894,0,0,1-2.609-2.375,6.449,6.449,0,0,1-.856-1.349c0.26-.237.5-0.485,0.736-0.722,0.089-.089.177-0.181,0.266-0.269a1.451,1.451,0,0,0,0-2.191l-0.865-.864c-0.1-.1-0.2-0.2-0.3-0.3-0.19-.2-0.39-0.4-0.6-0.589a1.5,1.5,0,0,0-1.062-.466,1.551,1.551,0,0,0-1.077.466l-0.007.006-1.077,1.086a2.31,2.31,0,0,0-.688,1.472,5.534,5.534,0,0,0,.406,2.35,13.621,13.621,0,0,0,2.424,4.04,14.922,14.922,0,0,0,4.967,3.885,7.743,7.743,0,0,0,2.789.823c0.067,0,.137.006,0.2,0.006a2.39,2.39,0,0,0,1.829-.785,0.181,0.181,0,0,1,.013-0.016,7.173,7.173,0,0,1,.554-0.573c0.137-.13.276-0.266,0.412-0.408a1.579,1.579,0,0,0,.479-1.1,1.522,1.522,0,0,0-.488-1.086ZM386,24.625s0,0,0,0c-0.123.133-.25,0.253-0.386,0.386a8.246,8.246,0,0,0-.612.633,1.528,1.528,0,0,1-1.192.5c-0.047,0-.1,0-0.146,0a6.88,6.88,0,0,1-2.472-.741,14.077,14.077,0,0,1-4.678-3.66,12.861,12.861,0,0,1-2.283-3.8,4.519,4.519,0,0,1-.354-1.982,1.45,1.45,0,0,1,.437-0.941l1.081-1.08a0.72,0.72,0,0,1,.482-0.225,0.677,0.677,0,0,1,.462.222l0.01,0.01c0.193,0.18.377,0.367,0.57,0.567l0.3,0.307,0.865,0.864a0.6,0.6,0,0,1,0,.982c-0.092.092-.181,0.184-0.273,0.272-0.266.272-.52,0.526-0.8,0.773a0.06,0.06,0,0,0-.016.016,0.645,0.645,0,0,0-.165.719l0.009,0.028a6.966,6.966,0,0,0,1.024,1.669l0,0a11.641,11.641,0,0,0,2.815,2.559,4.332,4.332,0,0,0,.39.212c0.114,0.057.222,0.111,0.314,0.168,0.012,0.006.025,0.016,0.038,0.022a0.687,0.687,0,0,0,.314.079,0.674,0.674,0,0,0,.481-0.218l1.084-1.083a0.718,0.718,0,0,1,.479-0.237,0.648,0.648,0,0,1,.457.231l0.006,0.006L386,23.634A0.625,0.625,0,0,1,386,24.625Zm-4.887-9.059a4.078,4.078,0,0,1,3.322,3.319,0.424,0.424,0,0,0,.421.355,0.547,0.547,0,0,0,.073-0.006,0.428,0.428,0,0,0,.352-0.494,4.928,4.928,0,0,0-4.019-4.015,0.431,0.431,0,0,0-.5.348A0.423,0.423,0,0,0,381.112,15.566ZM388,18.615A8.118,8.118,0,0,0,381.378,12a0.427,0.427,0,1,0-.139.842,7.251,7.251,0,0,1,5.914,5.909,0.426,0.426,0,0,0,.422.355,0.578,0.578,0,0,0,.073-0.006A0.419,0.419,0,0,0,388,18.615Z" transform="translate(-373.031 -12)"/>
</svg>
