<svg xmlns="http://www.w3.org/2000/svg" width="30" height="41" viewBox="0 0 30 41"><defs><style>.cls-1{fill:#fff;fill-rule:evenodd}</style></defs><path class="cls-1" d="M15 22.155a4.063 4.063 0 0 0-2.82 7.023v3.674a2.82 2.82 0 0 0 5.64 0v-3.674A4.063 4.063 0 0 0 15 22.155zm1.45 5.6a1.935 1.935 0 0 0-.615 1.4v3.7a.835.835 0 0 1-1.67 0v-3.7a1.933 1.933 0 0 0-.615-1.4 2.07 2.07 0 0 1-.664-1.528 2.112 2.112 0 0 1 4.224 0 2.062 2.062 0 0 1-.66 1.525zM27.02 16.81h-2.98V8.978a9.042 9.042 0 0 0-18.083 0v7.832H2.979A2.97 2.97 0 0 0 0 19.762v18.282A2.971 2.971 0 0 0 2.979 41H27.02A2.973 2.973 0 0 0 30 38.044V19.762a2.973 2.973 0 0 0-2.98-2.955zM7.942 8.978a7.059 7.059 0 0 1 14.118 0v7.832H7.942V8.978zM28.01 38.047a.986.986 0 0 1-.99.986H2.979a.99.99 0 0 1-.993-.986V19.762a.99.99 0 0 1 .993-.985H27.02a.986.986 0 0 1 .99.985v18.282z"/></svg>