<svg xmlns="http://www.w3.org/2000/svg" width="30" height="41" viewBox="0 0 30 41">
  <metadata><?xpacket begin="﻿" id="W5M0MpCehiHzreSzNTczkc9d"?>
<x:xmpmeta xmlns:x="adobe:ns:meta/" x:xmptk="Adobe XMP Core 5.6-c138 79.159824, 2016/09/14-01:09:01        ">
   <rdf:RDF xmlns:rdf="http://www.w3.org/1999/02/22-rdf-syntax-ns#">
      <rdf:Description rdf:about=""/>
   </rdf:RDF>
</x:xmpmeta>
                                                                                                    
                                                                                                    
                                                                                                    
                                                                                                    
                                                                                                    
                                                                                                    
                                                                                                    
                                                                                                    
                                                                                                    
                                                                                                    
                                                                                                    
                                                                                                    
                                                                                                    
                                                                                                    
                                                                                                    
                                                                                                    
                                                                                                    
                                                                                                    
                                                                                                    
                                                                                                    
                           
<?xpacket end="w"?></metadata>
<defs>
    <style>
      .cls-1 {
        fill: #fff;
        fill-rule: evenodd;
      }
    </style>
  </defs>
  <path class="cls-1" d="M999,651.155a4.063,4.063,0,0,0-2.82,7.023v3.674a2.82,2.82,0,0,0,5.64,0v-3.674A4.063,4.063,0,0,0,999,651.155Zm1.45,5.6a1.935,1.935,0,0,0-.615,1.4v3.7a0.835,0.835,0,0,1-1.67,0v-3.7a1.933,1.933,0,0,0-.615-1.4,2.07,2.07,0,0,1-.664-1.528,2.112,2.112,0,0,1,4.224,0A2.062,2.062,0,0,1,1000.45,656.752Zm10.57-10.945h-2.98v-7.832a9.042,9.042,0,0,0-18.083,0v7.832h-2.978A2.97,2.97,0,0,0,984,648.762v18.282A2.971,2.971,0,0,0,986.979,670h24.041a2.973,2.973,0,0,0,2.98-2.956V648.762A2.973,2.973,0,0,0,1011.02,645.807Zm-19.078-7.832a7.059,7.059,0,0,1,14.118,0v7.832H991.942v-7.832Zm20.068,29.069h0a0.986,0.986,0,0,1-.99.986H986.979a0.99,0.99,0,0,1-.993-0.986V648.762a0.99,0.99,0,0,1,.993-0.985h24.041a0.986,0.986,0,0,1,.99.985v18.282Z" transform="translate(-984 -629)"/>
</svg>
