<svg xmlns="http://www.w3.org/2000/svg" width="17" height="13" viewBox="0 0 14 13">
  <metadata><?xpacket begin="﻿" id="W5M0MpCehiHzreSzNTczkc9d"?>
<x:xmpmeta xmlns:x="adobe:ns:meta/" x:xmptk="Adobe XMP Core 5.6-c138 79.159824, 2016/09/14-01:09:01        ">
   <rdf:RDF xmlns:rdf="http://www.w3.org/1999/02/22-rdf-syntax-ns#">
      <rdf:Description rdf:about=""/>
   </rdf:RDF>
</x:xmpmeta>
                                                                                                    
                                                                                                    
                                                                                                    
                                                                                                    
                                                                                                    
                                                                                                    
                                                                                                    
                                                                                                    
                                                                                                    
                                                                                                    
                                                                                                    
                                                                                                    
                                                                                                    
                                                                                                    
                                                                                                    
                                                                                                    
                                                                                                    
                                                                                                    
                                                                                                    
                                                                                                    
                           
<?xpacket end="w"?></metadata>
<defs>
    <style>
      .cls-1 {
        fill: #a1a5b4;
        fill-rule: evenodd;
      }
    </style>
  </defs>
  <path id="Forma_1" data-name="Forma 1" class="cls-1" d="M3.1,4.054A2.271,2.271,0,0,1,4.81,4.84a0.4,0.4,0,0,0,.57.033A0.421,0.421,0,0,0,5.412,4.29,3.071,3.071,0,0,0,3.1,3.227a3.181,3.181,0,0,0-.4,6.324V10.92H1.82a0.414,0.414,0,0,0,0,.827H2.7v0.84a0.4,0.4,0,1,0,.807,0v-0.84H4.377a0.414,0.414,0,0,0,0-.827H3.5V9.55a3.083,3.083,0,0,0,1.91-1.036A0.421,0.421,0,0,0,5.38,7.931a0.4,0.4,0,0,0-.57.033A2.271,2.271,0,0,1,3.1,8.751,2.349,2.349,0,0,1,3.1,4.054Zm8.2-.815V1.319l0.6,0.615a0.4,0.4,0,0,0,.571,0,0.421,0.421,0,0,0,0-.585L11.336,0.187A0.61,0.61,0,0,0,10.9,0h0a0.61,0.61,0,0,0-.439.186L9.322,1.35a0.42,0.42,0,0,0,0,.585,0.4,0.4,0,0,0,.571,0l0.6-.615v1.92A3.081,3.081,0,0,0,8.537,4.326a0.421,0.421,0,0,0,.044.583A0.4,0.4,0,0,0,9.15,4.864,2.273,2.273,0,0,1,10.9,4.039a2.328,2.328,0,0,1,2.3,2.353,2.368,2.368,0,0,1-.673,1.664,2.259,2.259,0,0,1-3.37-.136,0.4,0.4,0,0,0-.569-0.046,0.421,0.421,0,0,0-.044.583A3.071,3.071,0,0,0,10.9,9.572h0a3.046,3.046,0,0,0,2.195-.931A3.2,3.2,0,0,0,14,6.392,3.16,3.16,0,0,0,11.3,3.239ZM6.035,5.931H8.066a0.414,0.414,0,0,0,0-.827H6.035A0.414,0.414,0,0,0,6.035,5.931ZM8.066,6.743H6.035a0.414,0.414,0,0,0,0,.827H8.066A0.414,0.414,0,0,0,8.066,6.743Z"/>
</svg>
