<svg xmlns="http://www.w3.org/2000/svg" width="17" height="13" viewBox="0 0 14 13"><defs><style>.cls-1{fill:#a1a5b4;fill-rule:evenodd}</style></defs><path id="Forma_1" data-name="Forma 1" class="cls-1" d="M3.1 4.054a2.271 2.271 0 0 1 1.71.786.4.4 0 0 0 .57.033.421.421 0 0 0 .032-.583A3.071 3.071 0 0 0 3.1 3.227a3.181 3.181 0 0 0-.4 6.324v1.369h-.88a.414.414 0 0 0 0 .827h.88v.84a.4.4 0 1 0 .807 0v-.84h.87a.414.414 0 0 0 0-.827H3.5V9.55a3.083 3.083 0 0 0 1.91-1.036.421.421 0 0 0-.03-.583.4.4 0 0 0-.57.033 2.271 2.271 0 0 1-1.71.787 2.349 2.349 0 0 1 0-4.697zm8.2-.815v-1.92l.6.615a.4.4 0 0 0 .571 0 .421.421 0 0 0 0-.585L11.336.187A.61.61 0 0 0 10.9 0a.61.61 0 0 0-.439.186L9.322 1.35a.42.42 0 0 0 0 .585.4.4 0 0 0 .571 0l.6-.615v1.92a3.081 3.081 0 0 0-1.956 1.086.421.421 0 0 0 .044.583.4.4 0 0 0 .569-.045 2.273 2.273 0 0 1 1.75-.825 2.328 2.328 0 0 1 2.3 2.353 2.368 2.368 0 0 1-.673 1.664 2.259 2.259 0 0 1-3.37-.136.4.4 0 0 0-.569-.046.421.421 0 0 0-.044.583A3.071 3.071 0 0 0 10.9 9.572a3.046 3.046 0 0 0 2.195-.931A3.2 3.2 0 0 0 14 6.392a3.16 3.16 0 0 0-2.7-3.153zM6.035 5.931h2.031a.414.414 0 0 0 0-.827H6.035a.414.414 0 0 0 0 .827zm2.031.812H6.035a.414.414 0 0 0 0 .827h2.031a.414.414 0 0 0 0-.827z"/></svg>