<svg xmlns="http://www.w3.org/2000/svg" width="45" height="41" viewBox="0 0 45 41"><defs><style>.cls-1{fill:#fff;fill-rule:evenodd}</style></defs><path id="Forma_1" data-name="Forma 1" class="cls-1" d="M431.429 637.665a3.733 3.733 0 0 1-1.717 2.8 2.836 2.836 0 0 0-.784.808 1.1 1.1 0 0 1-1.106 1.109h-.01a1.1 1.1 0 0 1-1.115-1.091 3.342 3.342 0 0 1 1.58-2.527 2.076 2.076 0 0 0 .921-1.1 1.1 1.1 0 0 0-2.208 0 1.116 1.116 0 1 1-2.231 0 3.335 3.335 0 0 1 6.67.001zm-3.586 5.749a1.1 1.1 0 0 0-1.091 1.116v.008a1.091 1.091 0 0 0 1.091 1.112 1.118 1.118 0 0 0 0-2.236zm-22.489 7.773a1.116 1.116 0 0 0 0 2.232h.093a1.116 1.116 0 0 0 0-2.232h-.093zm3.878 0a1.116 1.116 0 0 0 0 2.232h.093a1.116 1.116 0 0 0 0-2.232h-.093zM442 633.363v12.561a5.364 5.364 0 0 1-5.357 5.388h-14.47c-.282 0-.515 0-.71-.006s-.434-.006-.524 0c-.093.062-.322.272-.543.475l-.293.266-4.093 3.732a1.142 1.142 0 0 1-1.9-.824v-11.827h-11.69a3.2 3.2 0 0 0-3.189 3.172v12.561a3.149 3.149 0 0 0 3.189 3.114h16.162a1.118 1.118 0 0 1 .744.316l3.335 3.076V654.76a1.116 1.116 0 0 1 2.232 0v13.14a1.1 1.1 0 0 1-.658 1.015 1.069 1.069 0 0 1-.442.089 1.123 1.123 0 0 1-.752-.3l-4.892-4.489H402.42a5.382 5.382 0 0 1-5.42-5.346V646.3a5.431 5.431 0 0 1 5.42-5.4h11.687v-7.533a5.413 5.413 0 0 1 5.439-5.367h17.1a5.343 5.343 0 0 1 5.354 5.363zm-2.231 0a3.109 3.109 0 0 0-3.126-3.131h-17.1a3.178 3.178 0 0 0-3.207 3.131v19.067l2.243-2.028c.1-.1.22-.182.305-.26a2.82 2.82 0 0 1 2.623-1.068c.182 0 .4.006.663.006h14.47a3.13 3.13 0 0 0 3.126-3.156v-12.561z" transform="translate(-397 -628)"/></svg>