<svg xmlns="http://www.w3.org/2000/svg" width="14" height="15" viewBox="0 0 14 15">
  <metadata><?xpacket begin="﻿" id="W5M0MpCehiHzreSzNTczkc9d"?>
<x:xmpmeta xmlns:x="adobe:ns:meta/" x:xmptk="Adobe XMP Core 5.6-c138 79.159824, 2016/09/14-01:09:01        ">
   <rdf:RDF xmlns:rdf="http://www.w3.org/1999/02/22-rdf-syntax-ns#">
      <rdf:Description rdf:about=""/>
   </rdf:RDF>
</x:xmpmeta>
                                                                                                    
                                                                                                    
                                                                                                    
                                                                                                    
                                                                                                    
                                                                                                    
                                                                                                    
                                                                                                    
                                                                                                    
                                                                                                    
                                                                                                    
                                                                                                    
                                                                                                    
                                                                                                    
                                                                                                    
                                                                                                    
                                                                                                    
                                                                                                    
                                                                                                    
                                                                                                    
                           
<?xpacket end="w"?></metadata>
<defs>
    <style>
      .cls-1 {
        fill: #a6d6fb;
        fill-rule: evenodd;
      }
    </style>
  </defs>
  <path id="Forma_1" data-name="Forma 1" class="cls-1" d="M1444,18.5a3.727,3.727,0,0,0,2.7-1.1,3.7,3.7,0,0,0,0-5.3,3.867,3.867,0,0,0-5.4,0,3.7,3.7,0,0,0,0,5.3A3.727,3.727,0,0,0,1444,18.5Zm6.97,3.96c-0.03-.329-0.07-0.684-0.14-1.065a7.6,7.6,0,0,0-.27-1.06,4.545,4.545,0,0,0-.42-0.952,3.54,3.54,0,0,0-.62-0.791,2.629,2.629,0,0,0-.85-0.523,3.079,3.079,0,0,0-1.11-.2,1.235,1.235,0,0,0-.42.21c-0.22.14-.46,0.3-0.74,0.469a4.61,4.61,0,0,1-1.07.469,4.315,4.315,0,0,1-2.66,0,4.61,4.61,0,0,1-1.07-.469c-0.28-.172-0.52-0.329-0.74-0.469a1.235,1.235,0,0,0-.42-0.21,3.04,3.04,0,0,0-1.11.2,2.631,2.631,0,0,0-.85.523,3.54,3.54,0,0,0-.62.791,4.545,4.545,0,0,0-.42.952,7.6,7.6,0,0,0-.27,1.06c-0.07.381-.11,0.736-0.14,1.065s-0.03.666-.03,1.011a2.422,2.422,0,0,0,.72,1.851,2.726,2.726,0,0,0,1.93.679h8.7a2.726,2.726,0,0,0,1.93-.679,2.421,2.421,0,0,0,.72-1.851Q1451,22.954,1450.97,22.461Z" transform="translate(-1437 -11)"/>
</svg>
